<svg xmlns="http://www.w3.org/2000/svg" xmlns:xlink="http://www.w3.org/1999/xlink" viewBox="0 0 1334.49 729.22"><defs><style>.cls-1{fill:#bdcef1;}.cls-1,.cls-10,.cls-11,.cls-12,.cls-13,.cls-2,.cls-3,.cls-5,.cls-6,.cls-7,.cls-8,.cls-9{stroke:#fff8f8;stroke-miterlimit:10;}.cls-2{fill:#bccdf1;}.cls-3{fill:#008dd1;}.cls-4{fill:#0088e5;stroke:#fff;stroke-linecap:round;stroke-linejoin:round;stroke-width:3px;}.cls-10,.cls-11,.cls-12,.cls-13,.cls-5,.cls-6,.cls-7,.cls-8,.cls-9{stroke-width:1.5px;}.cls-5{fill:url(#Degradado_sin_nombre_25);}.cls-6{fill:url(#Degradado_sin_nombre_25-2);}.cls-7{fill:url(#Degradado_sin_nombre_25-3);}.cls-8{fill:url(#Degradado_sin_nombre_25-4);}.cls-9{fill:url(#Degradado_sin_nombre_25-5);}.cls-10{fill:url(#Degradado_sin_nombre_25-6);}.cls-11{fill:url(#Degradado_sin_nombre_25-7);}.cls-12{fill:url(#Degradado_sin_nombre_25-8);}.cls-13{fill:url(#Degradado_sin_nombre_25-9);}</style><linearGradient id="Degradado_sin_nombre_25" x1="267.48" y1="548.48" x2="260.23" y2="217.65" gradientUnits="userSpaceOnUse"><stop offset="0" stop-color="#ff0"/><stop offset="0.85" stop-color="#f15a24"/><stop offset="0.99" stop-color="#ed1c24"/></linearGradient><linearGradient id="Degradado_sin_nombre_25-2" x1="398.86" y1="545.6" x2="391.6" y2="214.77" xlink:href="#Degradado_sin_nombre_25"/><linearGradient id="Degradado_sin_nombre_25-3" x1="431.51" y1="544.88" x2="424.26" y2="214.05" xlink:href="#Degradado_sin_nombre_25"/><linearGradient id="Degradado_sin_nombre_25-4" x1="547.56" y1="542.34" x2="540.3" y2="211.51" xlink:href="#Degradado_sin_nombre_25"/><linearGradient id="Degradado_sin_nombre_25-5" x1="717.43" y1="538.61" x2="710.18" y2="207.78" xlink:href="#Degradado_sin_nombre_25"/><linearGradient id="Degradado_sin_nombre_25-6" x1="807.54" y1="536.64" x2="800.29" y2="205.8" xlink:href="#Degradado_sin_nombre_25"/><linearGradient id="Degradado_sin_nombre_25-7" x1="893.92" y1="534.74" x2="886.67" y2="203.91" xlink:href="#Degradado_sin_nombre_25"/><linearGradient id="Degradado_sin_nombre_25-8" x1="969.49" y1="533.09" x2="962.23" y2="202.25" xlink:href="#Degradado_sin_nombre_25"/><linearGradient id="Degradado_sin_nombre_25-9" x1="1035.5" y1="531.64" x2="1028.25" y2="200.81" xlink:href="#Degradado_sin_nombre_25"/></defs><title>Baja pools logo</title><g id="Capa_3" data-name="Capa 3"><path class="cls-1" d="M740.07,399.45c30.57,0,164,44.47,204.26,51.41s105.6,1.39,148.67-18.06,50-65.31,52.8-75,32,5.56,27.79,20.84c-19.45,70.86-63.91,93.1-169.52,98.65C895.94,483,773.42,412,698.38,399.45,697,382.78,709.5,399.45,740.07,399.45Z"/><path class="cls-2" d="M546.93,359.16C617.79,355,754,381.39,854,414.74c78.41,26.13,148.67,23.62,176.46,1.39s40.3-55.58-16.67-61.14-55.58,5.56-69.47,11.11-18.07-19.45-8.34-29.18,88.93-22.23,123.66,6.95,19.46,63.92-18.06,88.93-119.5,41.69-204.26,11.12-164-61.14-269.56-58.36C544.15,387,544.15,385.56,546.93,359.16Z"/><path class="cls-3" d="M542.76,360.55c112.55-4.17,285.13,58.39,334.87,72.25,84.76,23.62,207,29.18,225.1-65.31s-113.94-95.87-175.08-77.81-75,20.84-90.32,6.95,4.17-25,18.07-27.79,168.13-55.58,239,7,27.79,179.24-70.86,190.36-128,.42-225.1-32c-41.69-13.9-111.16-36.13-234.83-51.41C552.49,384.17,545.54,387,542.76,360.55Z"/><path class="cls-3" d="M559.32,379c62.46,3,155.64,32.51,196.48,51.16S912.48,498.86,1007,500.61,1148.7,475.4,1148.7,475.4c8.53-3.76,25.21,27.35,15.17,33.82s-87.69,28.09-181.67,15.24-148.7-32.17-223.63-65-139.44-51.2-186.5-56.24S552.38,378.65,559.32,379Z"/><path class="cls-4" d="M455.1,246.89c-11.07-25.3-1.58-49,83.8-45.85-31.62,1.58-69.57,28.46-64.83,58.5-14.22-4.75-41.1-4.75-52.17,15.81C415.58,269,418.74,243.73,455.1,246.89Z"/><path class="cls-4" d="M543,262.78c-8.3-19,18.55-30.76,63-25.2-23.71,1.18-52.34,12.16-48.78,34.69-10.68-3.56-30.83-3.56-39.14,11.85C513.32,279.38,515.69,260.41,543,262.78Z"/><path class="cls-5" d="M300.7,323.66c-15.59,0-45,20.52-45,20.52s-10.85-12-2.36-20.52,80.89-55.64,84-82.08c2-14.8-8.88-19.93-28.41-19.93-52.09,0-133.38,89.77-135.55,107.33-2,16,32.16-15.39,52.28-38.08,5.92-7.3,3.95-14.6,6.71-14.6,10.85,0,20.13,11.45,20.13,22.1,0,15.59-49.53,74.39-49.53,92.34,0,10.06-16.18,5.13-19.14-13.42-2-12.82,11.05-33.74,23.68-52.68-10.85,9.47-24.27,18.94-33.54,18.94-9.08,0-14.41-7.89-13.42-15.58,2.76-22.69,76.36-121.54,147-121.54,30.59,0,49.92,20.32,46.77,45.57-2.77,21.91-37.1,50.52-46.37,57.82,6.9,2.56,33.34,14.4,29.2,47.35a61.68,61.68,0,0,1-1.78,8.29,86.55,86.55,0,0,0,14.8-15.59c3.16-4.14,6.12-8.09,8.68-12,3-4.34,8.88-2.37,4.74,4.15-1.18,1.57-4.34,6.11-8.88,12-5.92,7.89-14.4,15.79-22.89,22.3-15.19,37.09-57.41,83.85-90.56,85.63h-1.78c-13.41-.79-17.75-8.29-16.18-18.55,2.77-19.93,59.2-47.15,84.65-62.94C308,380.48,338.58,323.66,300.7,323.66Zm-75-32.76c1.38-1.57,2.57-3.15,3.75-4.53C229.47,286.37,225.72,290.71,225.72,290.9Zm70.84,105c-22.1,13.62-62.35,36.9-64.13,49.33-.39,2.56.2,4.93,3,4.93C247.62,450.13,280.18,422.11,296.56,395.87Z"/><path class="cls-6" d="M415.73,330.56c-23.09,0-75.57,67.09-61.36,67.09,4.73,0,45.57-45.19,43.6-48.74-2.17-3.55,14-.59,14,13.81s-18.55,35.12-12.23,35.12c6.11,0,35.71-32.55,53.07-58.79,3-4.34,8.88-2.37,4.74,4.14C453.22,349.5,412,408.1,394,408.1c-8.09,0-16-12.23-16-17.16,0-4.74,3.36-12,3.36-12s-24.86,29.2-32.16,29.2c-7.11,0-18.55-9.07-18.55-23.08,0-22.89,47.94-75.37,70-75.37C412.37,309.65,420.07,330.56,415.73,330.56Z"/><path class="cls-7" d="M512,342c-3.95,5.92-45.19,57.21-65.31,64.12l-.4.59-2.76,4.54c-21.51,35.12-51.3,68.66-81.88,68.66-7.89,0-17.56-6.51-18.55-19.33-1.18-12.83,70.64-44.79,70.64-44.79,8.28-9.27,33.54-63.93,33.54-63.93,4.93-11.44,10.46-23.87,12.63-34.72,1-3.75-.4-8.09,4.34-8.09s14.2,7.1,15.59,22.49c1.38,15-18.55,50.12-26.44,62.74,11.84-7.69,39.26-34.33,54.06-56.43C510.24,333.52,516.36,335.49,512,342ZM406.85,424.88s-59.19,30-58.6,36.89c.4,3.55,3.36,5.72,6.91,5.72C374.49,467.49,406.85,424.88,406.85,424.88ZM470,280.25c-1.18-14.4,6.91-19.14,11.44-19.14s19.34,6.12,19.93,12.83-5.33,7.69-9.67,18.15c-4.14,10.65-3.74,10.85-6.7,10.85C480.64,302.94,471.37,294.65,470,280.25Z"/><path class="cls-8" d="M564.5,330.56c-23.09,0-75.57,67.09-61.36,67.09,4.73,0,45.57-45.19,43.6-48.74-2.17-3.55,14-.59,14,13.81s-18.55,35.12-12.23,35.12c6.11,0,35.71-32.55,53.07-58.79,3-4.34,8.88-2.37,4.74,4.14C602,349.5,560.75,408.1,542.8,408.1c-8.09,0-16-12.23-16-17.16,0-4.74,3.36-12,3.36-12S505.31,408.1,498,408.1c-7.11,0-18.55-9.07-18.55-23.08,0-22.89,47.95-75.37,70-75.37C561.15,309.65,568.84,330.56,564.5,330.56Z"/><path class="cls-9" d="M736.94,270.58c.79,12.63-22.69,45.58-22.69,45.58,47.56-8.68,70.44-41.63,68.47-64.52s-27.62-31-46-31c-52.88,0-106.35,46.17-103.39,83.07,1,12.82,7.89,16.38,7.89,16.38s11.44,6.31,4.34,6.31c-14.4,0-30.38-12.43-32.75-41.24-3-45,70.83-72.21,120.55-72.21,31.57,0,73.8,9.86,77,47.94,3,37.89-43,58.6-43,58.6l-10.85,5.33c-24.47,10.85-56,10.26-56,10.26S661,386.2,661,398.24c0,5.92,1,9.47-3.55,9.47s-10.85-8.49-10.85-25.65c0-30,73-111.68,71.82-126.47C718,249.86,735.76,257.56,736.94,270.58Z"/><path class="cls-10" d="M810.34,381.86a24.69,24.69,0,0,1-2.17,2.57s-1,1.18-2.76,3.15c-9.47,9.87-21.11,18.55-32,20.13a.73.73,0,0,1-.6.2,1.5,1.5,0,0,0-1,.19h-2c-7.89,0-21.11-3.94-21.11-24.86,0-35.31,37.89-73.39,59.39-73.39,11.05,0,18.94,7.3,23.88,15.58.79,1.38-.79,4.15-9.67,4.15-32.76,0-66.3,70.24-49.13,70.24,11.64,0,33.15-23.28,33.15-23.28a38.93,38.93,0,0,1-1.78-12c0-16,19.53-23.09,19.53-6.51,0,3.55-3.55,9.86-9.86,18.15a7.81,7.81,0,0,0,3.75,1.38c9.47,0,18.54-14.8,34.53-38.87,2.76-4.34,8.87-2.17,4.53,4.14-3.75,5.92-22.88,41.64-39.66,41.64A12.2,12.2,0,0,1,810.34,381.86Z"/><path class="cls-11" d="M896.76,381.86a24.69,24.69,0,0,1-2.17,2.57s-1,1.18-2.76,3.15c-9.47,9.87-21.11,18.55-32,20.13a.71.71,0,0,1-.59.2,1.5,1.5,0,0,0-1,.19h-2c-7.89,0-21.11-3.94-21.11-24.86,0-35.31,37.88-73.39,59.39-73.39,11,0,18.94,7.3,23.87,15.58.79,1.38-.78,4.15-9.66,4.15-32.76,0-66.3,70.24-49.13,70.24,11.64,0,33.15-23.28,33.15-23.28a38.93,38.93,0,0,1-1.78-12c0-16,19.53-23.09,19.53-6.51,0,3.55-3.55,9.86-9.86,18.15a7.81,7.81,0,0,0,3.75,1.38c9.47,0,18.54-14.8,34.52-38.87,2.77-4.34,8.88-2.17,4.54,4.14-3.75,5.92-22.88,41.64-39.66,41.64A12.17,12.17,0,0,1,896.76,381.86Z"/><path class="cls-12" d="M919.65,384c0-22.1,71.42-126.47,71.42-148,0-5.72,18.94,1.19,18.94,21.11,0,19.74-86.61,140.68-67.28,140.68,5.92,0,38.28-33.74,55.84-60,2.76-4.34,8.88-2.37,4.54,4.15-4.15,6.31-48.34,66.09-66.3,66.09C922,408.1,919.65,393.5,919.65,384Z"/><path class="cls-13" d="M1077.69,342c-3.35,5.13-13.81,23.48-44,29.2v1.38c-.39,29.2-19.34,35.51-29.79,35.51-4.54,0-19.34-4.34-19.34-17.16,0-16.77,30.78-22.69,30.78-22.69s4.14-23.28.59-43a16.28,16.28,0,0,1-.19-2.77c-4,6.51-9.08,14.6-14.41,21.9-3.75,5.13-8.29,1-5.13-3.55,6.71-9.86,18.55-27.62,21.9-39.26,1.19-4.74,3.95-14.6,7.5-11.84,4.54,3.55,17.56,12.43,17.56,23.68,0,10.65-8.48,10.65-9.47,51.1,17-3.75,29.4-11.84,39.26-26.64C1075.91,333.52,1081.83,335.49,1077.69,342Zm-62.55,33.34s-24.07,5.72-24.07,16.77C991.07,400.8,1008.63,401.2,1015.14,375.35Z"/></g></svg>